<?xml version="1.0" encoding="utf-8"?>
<svg width="106" height="36" viewBox="0 0 106 36" fill="none" xmlns="http://www.w3.org/2000/svg" xmlns:bx="https://boxy-svg.com">
  <defs>
    <style bx:fonts="Montserrat">@import url(https://fonts.googleapis.com/css2?family=Montserrat%3Aital%2Cwght%400%2C100%3B0%2C200%3B0%2C300%3B0%2C400%3B0%2C500%3B0%2C600%3B0%2C700%3B0%2C800%3B0%2C900%3B1%2C100%3B1%2C200%3B1%2C300%3B1%2C400%3B1%2C500%3B1%2C600%3B1%2C700%3B1%2C800%3B1%2C900&amp;display=swap);</style>
  </defs>
  <rect width="36" height="36" rx="6.75" fill="#2865E9"/>
  <path d="M6.80004 22.3194C7.11082 24.085 8.79058 25.2642 10.5519 24.9534C12.3132 24.6419 13.4896 22.9577 13.1795 21.1921C12.8687 19.4265 14.0457 17.7423 15.8071 17.4308C17.5684 17.1194 18.7447 15.4351 18.4346 13.6695C18.1239 11.9039 16.4441 10.7248 14.6828 11.0355C12.9214 11.3463 11.7437 13.0312 12.0545 14.7968C12.3653 16.5624 11.1882 18.2466 9.42691 18.5581C7.66558 18.8695 6.48926 20.5538 6.80004 22.3194Z" fill="white"/>
  <path d="M14.7922 22.3189C15.103 24.0845 16.7827 25.2637 18.5441 24.9529C20.3054 24.6415 21.4817 22.9572 21.1717 21.1916C20.8609 19.426 22.0379 17.7418 23.7992 17.4303C25.5606 17.1189 26.7369 15.4347 26.4268 13.6691C26.116 11.9035 24.4363 10.7243 22.6749 11.035C20.9136 11.3465 19.7373 13.0307 20.0474 14.7963C20.3581 16.5619 19.1811 18.2462 17.4198 18.5576C15.6585 18.8691 14.4814 20.5533 14.7922 22.3189Z" fill="white"/>
  <path d="M26.0113 25.0147C27.7999 25.0147 29.2499 23.5609 29.2499 21.7676C29.2499 19.9743 27.7999 18.5205 26.0113 18.5205C24.2227 18.5205 22.7727 19.9743 22.7727 21.7676C22.7727 23.5609 24.2227 25.0147 26.0113 25.0147Z" fill="white"/>
  <text style="fill: rgb(30, 41, 59); font-family: Montserrat; font-size: 18.9px; font-weight: 600; white-space: pre;" x="47.565" y="24.936" transform="matrix(1.040481, 0, 0, 1.041558, -3.239279, -0.515742)">eCert</text>
  <text style="white-space: pre; fill: rgb(51, 51, 51); font-family: Arial, sans-serif; font-size: 2.1px;" x="78.44" y="25.261"> </text>
</svg>